<svg width="12" height="12" viewBox="0 0 12 12" fill="none" xmlns="http://www.w3.org/2000/svg">
<g clip-path="url(#clip0_652_410)">
<path fill-rule="evenodd" clip-rule="evenodd" d="M9.02025 7.44L12 10.4625L10.5 12L7.44375 9.018C6.67292 9.49768 5.78289 9.7513 4.875 9.75C2.1825 9.75 0 7.56225 0 4.875C0 2.1825 2.18775 0 4.875 0C7.5675 0 9.75 2.18775 9.75 4.875C9.75136 5.78141 9.49854 6.67005 9.02025 7.44ZM1.49775 4.839C1.49775 6.699 3.00825 8.214 4.87275 8.214C6.73275 8.214 8.24775 6.70275 8.24775 4.839C8.24775 2.979 6.7365 1.464 4.87275 1.464C3.01275 1.464 1.49775 2.9745 1.49775 4.839Z" fill="#968D7D"/>
</g>
<defs>
<clipPath id="clip0_652_410">
<rect width="12" height="12" fill="white"/>
</clipPath>
</defs>
</svg>
