    <svg width="15" height="15" viewBox="0 0 15 15" fill="none" xmlns="http://www.w3.org/2000/svg">
    <path fill-rule="evenodd" clip-rule="evenodd" d="M10.4425 4.47536C10.4425 2.82992 9.10438 1.49179 7.45894 1.49179C5.8135 1.49179 4.47536 2.82992 4.47536 4.47536C4.47536 6.1208 5.8135 7.45894 7.45894 7.45894C9.10438 7.45894 10.4425 6.1208 10.4425 4.47536ZM14.9179 14.9179H11.1884V13.4261H13.265C12.6489 10.6021 10.2821 8.95072 7.45894 8.95072C4.63573 8.95072 2.26901 10.6021 1.6529 13.4261H3.72947V14.9179H0C0 11.5203 1.92665 8.98651 4.65587 7.9609C3.63698 7.14117 2.98357 5.8851 2.98357 4.47536C2.98357 2.00347 4.98705 0 7.45894 0C9.93083 0 11.9343 2.00347 11.9343 4.47536C11.9343 5.8851 11.2809 7.14117 10.262 7.9609C12.9912 8.98651 14.9179 11.5203 14.9179 14.9179Z" fill="#968D7D"/>
    </svg>
