<svg width="25" height="25" viewBox="0 0 25 25" fill="none" xmlns="http://www.w3.org/2000/svg">
<g clip-path="url(#clip0_26_310)">
<path fill-rule="evenodd" clip-rule="evenodd" d="M17.5 7.5C17.5 4.7425 15.2575 2.5 12.5 2.5C9.7425 2.5 7.5 4.7425 7.5 7.5C7.5 10.2575 9.7425 12.5 12.5 12.5C15.2575 12.5 17.5 10.2575 17.5 7.5ZM25 25H18.75V22.5H22.23C21.1975 17.7675 17.2313 15 12.5 15C7.76875 15 3.8025 17.7675 2.77 22.5H6.25V25H0C0 19.3062 3.22876 15.06 7.80251 13.3412C6.09501 11.9675 5 9.8625 5 7.5C5 3.3575 8.3575 0 12.5 0C16.6425 0 20 3.3575 20 7.5C20 9.8625 18.905 11.9675 17.1975 13.3412C21.7712 15.06 25 19.3062 25 25ZM8.75 25H16.25V22.5H8.75V25Z" fill="#968D7D"/>
</g>
<defs>
<clipPath id="clip0_26_310">
<rect width="25" height="25" fill="white"/>
</clipPath>
</defs>
</svg>
