<svg width="23" height="23" viewBox="0 0 23 23" fill="none" xmlns="http://www.w3.org/2000/svg">
<path fill-rule="evenodd" clip-rule="evenodd" d="M22.386 9.6462H11.5324C11.5324 10.752 11.5324 12.9633 11.5255 14.0691H17.8148C17.5738 15.1749 16.7193 16.7232 15.512 17.5028C15.512 17.5028 15.5097 17.5093 15.5073 17.5082C13.9021 18.5465 11.7838 18.7821 10.2109 18.4725C7.74542 17.9926 5.79424 16.241 5.00202 14.0161C5.00663 14.0128 5.01011 13.9822 5.01357 13.9799C4.51771 12.5999 4.51771 10.752 5.01357 9.6462H5.01241C5.65127 7.6138 7.66122 5.75951 10.1301 5.25196C12.1159 4.8395 14.3565 5.286 16.0044 6.79648C16.2235 6.58639 19.0372 3.89504 19.2482 3.6761C13.6185 -1.31868 4.60419 0.438345 1.23118 6.88832H1.23003C1.23003 6.88832 1.23119 6.88859 1.22427 6.90075C-0.444358 10.0688 -0.37517 13.8018 1.2358 16.8183C1.23119 16.8216 1.22773 16.8237 1.22427 16.827C2.68418 19.6025 5.34107 21.731 8.54225 22.5415C11.9429 23.4151 16.2707 22.818 19.1698 20.2493L19.1733 20.2526C21.6295 18.0853 23.1586 14.3933 22.386 9.6462Z" fill="#E75854"/>
</svg>
