<svg width="23" height="22" viewBox="0 0 23 22" fill="none" xmlns="http://www.w3.org/2000/svg">
<path d="M11.1227 0.222839C5.00519 0.222839 0 5.11529 0 11.141C0 16.5891 4.07089 21.1111 9.38752 21.9283V14.3009H6.56236V11.141H9.38752V8.73286C9.38752 5.99789 11.0448 4.4942 13.5919 4.4942C14.8042 4.4942 16.0722 4.70123 16.0722 4.70123V7.39262H14.6708C13.2916 7.39262 12.8578 8.23163 12.8578 9.09246V11.141H15.9499L15.4494 14.3009H12.8578V21.9283C15.4787 21.5228 17.8654 20.2127 19.5869 18.2345C21.3083 16.2564 22.2513 13.7404 22.2453 11.141C22.2453 5.11529 17.2401 0.222839 11.1227 0.222839Z" fill="#0069A5"/>
</svg>
