<svg width="17" height="16" viewBox="0 0 17 16" fill="none" xmlns="http://www.w3.org/2000/svg">
<mask id="path-1-outside-1_3022_713" maskUnits="userSpaceOnUse" x="0" y="-0.389999" width="17" height="17" fill="black">
<rect fill="white" y="-0.389999" width="17" height="17"/>
<path d="M10.5858 3.02421L3.39171 10.2183C3.19706 10.4129 3.09974 10.5103 3.03276 10.6286C2.96579 10.7468 2.93241 10.8804 2.86564 11.1474L2.20211 13.8015C2.11186 14.1626 2.06673 14.3431 2.16682 14.4432C2.2669 14.5433 2.44742 14.4981 2.80844 14.4079L2.80845 14.4079L5.46257 13.7444C5.72963 13.6776 5.86316 13.6442 5.98145 13.5772C6.09974 13.5103 6.19706 13.4129 6.39171 13.2183L13.5858 6.02421L13.5858 6.02421C14.2525 5.35755 14.5858 5.02421 14.5858 4.61C14.5858 4.19579 14.2525 3.86245 13.5858 3.19579L13.4142 3.02421C12.7475 2.35755 12.4142 2.02421 12 2.02421C11.5858 2.02421 11.2525 2.35755 10.5858 3.02421Z"/>
</mask>
<path d="M3.39171 10.2183L4.45237 11.2789H4.45237L3.39171 10.2183ZM10.5858 3.02421L9.52513 1.96355L9.52513 1.96355L10.5858 3.02421ZM13.4142 3.02421L12.3536 4.08487L12.3536 4.08488L13.4142 3.02421ZM13.5858 3.19579L14.6464 2.13513L14.6464 2.13512L13.5858 3.19579ZM13.5858 6.02421L14.6464 7.08487L13.5858 6.02421ZM6.39171 13.2183L5.33105 12.1576L5.33105 12.1576L6.39171 13.2183ZM2.86564 11.1474L4.32086 11.5112V11.5112L2.86564 11.1474ZM2.20211 13.8015L0.746899 13.4377V13.4377L2.20211 13.8015ZM2.80845 14.4079L2.44465 12.9527L2.3793 12.969L2.31567 12.9911L2.80845 14.4079ZM5.46257 13.7444L5.09877 12.2891L5.09877 12.2891L5.46257 13.7444ZM2.16682 14.4432L3.22748 13.3825L3.22747 13.3825L2.16682 14.4432ZM2.80844 14.4079L3.17224 15.8631L3.2376 15.8468L3.30122 15.8246L2.80844 14.4079ZM5.98145 13.5772L5.2424 12.2719L5.2424 12.2719L5.98145 13.5772ZM13.5858 6.02421L14.6465 7.08487V7.08487L13.5858 6.02421ZM3.03276 10.6286L1.72746 9.8895L1.72746 9.8895L3.03276 10.6286ZM4.45237 11.2789L11.6464 4.08487L9.52513 1.96355L2.33105 9.15763L4.45237 11.2789ZM12.3536 4.08488L12.5251 4.25645L14.6464 2.13512L14.4749 1.96355L12.3536 4.08488ZM12.5251 4.96355L5.33105 12.1576L7.45237 14.2789L14.6464 7.08487L12.5251 4.96355ZM1.41043 10.7836L0.746899 13.4377L3.65733 14.1654L4.32086 11.5112L1.41043 10.7836ZM3.17226 15.8631L5.82638 15.1996L5.09877 12.2891L2.44465 12.9527L3.17226 15.8631ZM0.746899 13.4377C0.713999 13.5693 0.643699 13.8341 0.62021 14.0742C0.594907 14.3328 0.578011 14.9757 1.10616 15.5038L3.22747 13.3825C3.42048 13.5755 3.53082 13.8049 3.57919 14.015C3.62109 14.197 3.60925 14.3326 3.60596 14.3663C3.60227 14.404 3.59821 14.4129 3.60886 14.3648C3.61898 14.3192 3.6333 14.2615 3.65733 14.1654L0.746899 13.4377ZM2.31567 12.9911L2.31566 12.9911L3.30122 15.8246L3.30123 15.8246L2.31567 12.9911ZM2.44465 12.9527C2.34853 12.9767 2.2908 12.991 2.24519 13.0011C2.19714 13.0118 2.20601 13.0077 2.24374 13.004C2.27744 13.0007 2.41297 12.9889 2.59501 13.0308C2.80513 13.0792 3.03447 13.1895 3.22748 13.3825L1.10615 15.5038C1.63429 16.032 2.27716 16.0151 2.53581 15.9898C2.77593 15.9663 3.04065 15.896 3.17224 15.8631L2.44465 12.9527ZM5.33105 12.1576C5.28079 12.2079 5.24426 12.2444 5.21273 12.2753C5.18146 12.3059 5.16438 12.3218 5.15517 12.3301C5.14674 12.3377 5.15246 12.332 5.16851 12.3199C5.18625 12.3067 5.21142 12.2895 5.2424 12.2719L6.7205 14.8825C7.05692 14.6921 7.31404 14.4173 7.45238 14.2789L5.33105 12.1576ZM5.82637 15.1996C6.01618 15.1521 6.38407 15.073 6.7205 14.8825L5.2424 12.2719C5.27338 12.2544 5.30106 12.2417 5.32158 12.2333C5.34016 12.2257 5.34799 12.2237 5.33715 12.2271C5.32532 12.2307 5.30286 12.2371 5.26052 12.2482C5.21783 12.2594 5.16773 12.2719 5.09877 12.2891L5.82637 15.1996ZM12.5251 4.25645C12.6957 4.42706 12.8269 4.55839 12.9362 4.67332C13.046 4.78881 13.1078 4.86097 13.1433 4.90744C13.1781 4.95313 13.1624 4.94181 13.1388 4.88537C13.1103 4.81698 13.0858 4.71988 13.0858 4.61H16.0858C16.0858 3.94306 15.7968 3.43956 15.5283 3.08769C15.2863 2.77043 14.9498 2.43847 14.6464 2.13513L12.5251 4.25645ZM14.6464 7.08487L14.6465 7.08487L12.5251 4.96355L12.5251 4.96355L14.6464 7.08487ZM14.6465 7.08487C14.9498 6.78152 15.2863 6.44956 15.5283 6.13231C15.7968 5.78044 16.0858 5.27694 16.0858 4.61H13.0858C13.0858 4.50012 13.1103 4.40302 13.1388 4.33463C13.1624 4.27819 13.1781 4.26687 13.1433 4.31257C13.1078 4.35903 13.046 4.43119 12.9362 4.54667C12.8269 4.66161 12.6957 4.79294 12.5251 4.96355L14.6465 7.08487ZM11.6464 4.08487C11.8171 3.91426 11.9484 3.78307 12.0633 3.67379C12.1788 3.564 12.251 3.5022 12.2974 3.46675C12.3431 3.43189 12.3318 3.44762 12.2754 3.47116C12.207 3.49968 12.1099 3.52421 12 3.52421V0.524214C11.3331 0.524214 10.8296 0.813213 10.4777 1.08168C10.1604 1.32374 9.82848 1.6602 9.52513 1.96355L11.6464 4.08487ZM14.4749 1.96355C14.1715 1.66021 13.8396 1.32374 13.5223 1.08168C13.1704 0.813213 12.6669 0.524214 12 0.524214V3.52421C11.8901 3.52421 11.793 3.49968 11.7246 3.47116C11.6682 3.44762 11.6569 3.43189 11.7026 3.46675C11.749 3.5022 11.8212 3.564 11.9367 3.67379C12.0516 3.78307 12.1829 3.91426 12.3536 4.08487L14.4749 1.96355ZM2.33105 9.15763C2.19271 9.29597 1.91795 9.55308 1.72746 9.8895L4.33806 11.3676C4.32052 11.3986 4.30335 11.4238 4.29005 11.4415C4.27802 11.4575 4.27232 11.4633 4.27991 11.4548C4.28818 11.4456 4.30412 11.4285 4.33473 11.3973C4.36561 11.3657 4.40211 11.3292 4.45237 11.2789L2.33105 9.15763ZM4.32086 11.5112C4.3381 11.4423 4.35064 11.3922 4.36179 11.3495C4.37285 11.3071 4.37931 11.2847 4.38294 11.2729C4.38627 11.262 4.3843 11.2698 4.37672 11.2884C4.36835 11.3089 4.35561 11.3366 4.33806 11.3676L1.72746 9.8895C1.53698 10.2259 1.45788 10.5938 1.41043 10.7836L4.32086 11.5112Z" fill="#363636" mask="url(#path-1-outside-1_3022_713)"/>
</svg>
