<svg width="28" height="27" viewBox="0 0 28 27" fill="none" xmlns="http://www.w3.org/2000/svg">
<path d="M9.99866 27C7.65289 26.2994 5.56486 24.9986 3.91151 23.2751C4.5283 22.5417 4.9 21.5942 4.9 20.5596C4.9 18.2326 3.0196 16.3461 0.7 16.3461C0.559685 16.3461 0.420973 16.353 0.284193 16.3665C0.0978531 15.4526 0 14.5063 0 13.5371C0 12.069 0.224539 10.6535 0.641053 9.32326C0.660667 9.32354 0.680316 9.32368 0.7 9.32368C3.0196 9.32368 4.9 7.43724 4.9 5.11021C4.9 4.44217 4.74502 3.81043 4.46922 3.24926C6.08825 1.739 8.06435 0.608761 10.2565 0C10.9511 1.3659 12.3667 2.30125 14 2.30125C15.6333 2.30125 17.0489 1.3659 17.7435 0C19.9356 0.608761 21.9117 1.739 23.5308 3.24926C23.255 3.81043 23.1 4.44217 23.1 5.11021C23.1 7.43724 24.9804 9.32368 27.3 9.32368C27.3197 9.32368 27.3393 9.32354 27.3589 9.32326C27.7754 10.6535 28 12.069 28 13.5371C28 14.5063 27.9021 15.4526 27.7158 16.3665C27.579 16.353 27.4403 16.3461 27.3 16.3461C24.9804 16.3461 23.1 18.2326 23.1 20.5596C23.1 21.5942 23.4717 22.5417 24.0885 23.2751C22.4351 24.9986 20.3471 26.2994 18.0013 27C17.46 25.301 15.8732 24.0708 14 24.0708C12.1268 24.0708 10.54 25.301 9.99866 27Z" fill="#968D7D"/>
<path d="M14 18C16.7614 18 19 15.7614 19 13C19 10.2386 16.7614 8 14 8C11.2386 8 9 10.2386 9 13C9 15.7614 11.2386 18 14 18Z" fill="#FBF3E6"/>
</svg>
