<svg width="23" height="20" viewBox="0 0 23 20" fill="none" xmlns="http://www.w3.org/2000/svg">
<path d="M12 8V12V16" stroke="#7C473F" stroke-linecap="round"/>
<path d="M16 8L15 16" stroke="#7C473F" stroke-linecap="round"/>
<path d="M8 8L9 16" stroke="#7C473F" stroke-linecap="round"/>
<path d="M3.93333 4.6L6.00363 18.151C6.07823 18.6393 6.49819 19 6.99216 19H16.9859C17.4894 19 17.9143 18.6257 17.9779 18.1263L19.7 4.6M3.93333 4.6H19.7M3.93333 4.6H2.48721C1.77703 4.6 1.29317 3.8804 1.56112 3.2227L2.21297 1.6227C2.36638 1.24617 2.73248 1 3.13907 1H20.5537C20.9298 1 21.2741 1.21104 21.4448 1.5462L22.2596 3.1462C22.5985 3.8115 22.1151 4.6 21.3685 4.6H19.7" stroke="#7C473F" stroke-linecap="round"/>
</svg>
