<svg width="24" height="25" viewBox="0 0 24 25" fill="none" xmlns="http://www.w3.org/2000/svg">
<path d="M14.6358 4.51949C15.2888 4.08412 15.6153 3.86643 15.9711 3.90166C16.3269 3.93689 16.6044 4.21439 17.1594 4.76938L19.8406 7.45062C20.3956 8.00561 20.6731 8.28311 20.7083 8.63888C20.7436 8.99465 20.5259 9.32118 20.0905 9.97424L18.4419 12.4472C17.88 13.29 17.5991 13.7113 17.3749 14.1611C17.2086 14.4945 17.0659 14.8392 16.9476 15.1925C16.7882 15.6691 16.6889 16.1657 16.4902 17.1589L16.2992 18.1138C16.2986 18.1172 16.2982 18.1189 16.298 18.1201C16.1556 18.823 15.3414 19.1519 14.7508 18.7451C14.7497 18.7444 14.7483 18.7434 14.7455 18.7415V18.7415C14.7322 18.7323 14.7255 18.7277 14.7189 18.7231C11.2692 16.3325 8.27754 13.3408 5.88691 9.89108C5.88233 9.88448 5.87772 9.87782 5.86851 9.86451V9.86451C5.86655 9.86169 5.86558 9.86028 5.86486 9.85924C5.45815 9.26858 5.78704 8.45444 6.4899 8.31202C6.49113 8.31177 6.49282 8.31144 6.49618 8.31076L7.45114 8.11977C8.44433 7.92114 8.94092 7.82182 9.4175 7.66237C9.77083 7.54415 10.1155 7.40139 10.4489 7.23514C10.8987 7.01089 11.32 6.72998 12.1628 6.16815L14.6358 4.51949Z" stroke="#363636" stroke-width="1.5"/>
<path d="M5 19.61L9.5 15.11" stroke="#363636" stroke-width="1.5" stroke-linecap="round"/>
</svg>
