<svg width="24" height="23" viewBox="0 0 24 23" fill="none" xmlns="http://www.w3.org/2000/svg">
<path fill-rule="evenodd" clip-rule="evenodd" d="M23.1009 11.5785C23.1009 17.8278 17.9295 22.8939 11.5504 22.8939C5.17131 22.8939 0 17.8278 0 11.5785C0 5.32916 5.17131 0.263084 11.5504 0.263084C17.9295 0.263084 23.1009 5.32916 23.1009 11.5785ZM11.9643 8.61662C10.8409 9.07439 8.59558 10.0218 5.22839 11.459C4.6816 11.6721 4.39518 11.8805 4.36911 12.0842C4.32504 12.4286 4.76524 12.5642 5.36466 12.7488C5.44621 12.774 5.53069 12.8 5.61729 12.8275C6.20704 13.0153 7.00036 13.2351 7.41276 13.2438C7.78686 13.2517 8.2044 13.1006 8.66536 12.7905C11.8115 10.71 13.4355 9.65849 13.5374 9.63575C13.6093 9.61979 13.709 9.59965 13.7766 9.65849C13.8441 9.71733 13.8374 9.82868 13.8303 9.85855C13.7867 10.0407 12.0588 11.6145 11.1645 12.4288C10.8858 12.6828 10.6881 12.8628 10.6477 12.904C10.5571 12.9961 10.4648 13.0832 10.3761 13.1669C9.82827 13.6844 9.41731 14.0724 10.3989 14.7061C10.8706 15.0106 11.2479 15.2623 11.6245 15.5135C12.0357 15.7879 12.4458 16.0615 12.9766 16.4024C13.1117 16.4892 13.2409 16.5793 13.3666 16.6671C13.8452 17.0014 14.2751 17.3017 14.8063 17.2537C15.1149 17.226 15.4337 16.9417 15.5956 16.0937C15.9783 14.0897 16.7305 9.74766 16.9043 7.95848C16.9196 7.80172 16.9004 7.6011 16.885 7.51304C16.8695 7.42497 16.8374 7.29948 16.7205 7.20659C16.5822 7.09658 16.3686 7.07339 16.273 7.07496C15.8385 7.08254 15.172 7.30958 11.9643 8.61662Z" fill="#019FB5"/>
</svg>
