<svg width="20" height="20" viewBox="0 0 20 20" fill="none" xmlns="http://www.w3.org/2000/svg">
<g clip-path="url(#clip0_344_1660)">
<path d="M8.84533 14.8298C8.56417 15.4737 7.67313 15.4737 7.392 14.8298L6.66062 13.1547C6.00976 11.664 4.83824 10.4773 3.37692 9.82866L1.36382 8.93508C0.72378 8.651 0.72378 7.7199 1.36382 7.4358L3.31404 6.57011C4.81294 5.90476 6.00547 4.67417 6.64522 3.1326L7.38608 1.34744C7.66099 0.684969 8.57633 0.684968 8.85125 1.34744L9.59208 3.13261C10.2318 4.67417 11.4243 5.90476 12.9232 6.57011L14.8735 7.4358C15.5135 7.7199 15.5135 8.651 14.8735 8.93508L12.8604 9.82866C11.3991 10.4773 10.2276 11.664 9.57666 13.1547L8.84533 14.8298ZM3.78297 8.18545C5.68783 9.031 7.23668 10.4208 8.11865 12.3332C9.00067 10.4208 10.5495 9.031 12.4543 8.18545C10.5267 7.3298 8.973 5.87222 8.11866 3.9259C7.26432 5.87223 5.71056 7.3298 3.78297 8.18545ZM16.1678 18.9084L16.3735 18.437C16.7402 17.5965 17.4006 16.9272 18.2246 16.5612L18.8582 16.2796C19.201 16.1273 19.201 15.6292 18.8582 15.477L18.2601 15.2112C17.4148 14.8357 16.7426 14.1417 16.3822 13.2726L16.171 12.7632C16.0237 12.4082 15.5329 12.4082 15.3857 12.7632L15.1745 13.2726C14.8142 14.1417 14.1419 14.8357 13.2967 15.2112L12.6984 15.477C12.3557 15.6292 12.3557 16.1273 12.6984 16.2796L13.3321 16.5612C14.1562 16.9272 14.8165 17.5965 15.1832 18.437L15.3889 18.9084C15.5394 19.2535 16.0172 19.2535 16.1678 18.9084ZM15.3121 15.8726L15.7808 15.4071L16.2398 15.8726L15.7808 16.325L15.3121 15.8726Z" fill="#319A6E"/>
</g>
<defs>
<clipPath id="clip0_344_1660">
<rect width="20" height="20" fill="white"/>
</clipPath>
</defs>
</svg>
