<svg width="17" height="16" viewBox="0 0 17 16" fill="none" xmlns="http://www.w3.org/2000/svg">
<path d="M6.6902 2.16667L5.02353 3.83333H1.83317V13.8333H15.1665V3.83333H11.9762L10.3095 2.16667H6.6902ZM5.99984 0.5H10.9998L12.6665 2.16667H15.9998C16.4601 2.16667 16.8332 2.53977 16.8332 3V14.6667C16.8332 15.1269 16.4601 15.5 15.9998 15.5H0.999837C0.539604 15.5 0.166504 15.1269 0.166504 14.6667V3C0.166504 2.53977 0.539604 2.16667 0.999837 2.16667H4.33317L5.99984 0.5ZM8.49984 13C5.96853 13 3.9165 10.948 3.9165 8.41667C3.9165 5.88536 5.96853 3.83333 8.49984 3.83333C11.0312 3.83333 13.0832 5.88536 13.0832 8.41667C13.0832 10.948 11.0312 13 8.49984 13ZM8.49984 11.3333C10.1107 11.3333 11.4165 10.0275 11.4165 8.41667C11.4165 6.80583 10.1107 5.5 8.49984 5.5C6.889 5.5 5.58317 6.80583 5.58317 8.41667C5.58317 10.0275 6.889 11.3333 8.49984 11.3333Z" fill="#319A6E"/>
</svg>
